# xmcd CD database file
#
# Track frame offsets:
#	150
#	10250
#	23080
#	34537
#	47167
#	60212
#	74235
#	87070
#	102035
#	116077
#	128280
#	142785
#	156622
#	167335
#	180082
#	194820
#	206659
#	219982
#
# Disc length: 3099 seconds
#
# Revision: 0
# Processed by: cddbd v1.4PL0 Copyright (c) Steve Scherf et al.
# Submitted via: CDex 1.50
#
DISCID=e90c1912
DTITLE=Teddy Wilson - I Want to be Happy 1944-1947
DYEAR=2001
DGENRE=Jazz
TTITLE0=China Boy
TTITLE1=Confession' (That I Love You)
TTITLE2=The Sheik of Araby
TTITLE3=I Surrender Dear
TTITLE4=Bugle Call Rag
TTITLE5=Every Time We Say Goodbye
TTITLE6=Dinah
TTITLE7=How High The Moon
TTITLE8=Memories of You
TTITLE9=Stompin' at the Savoy
TTITLE10=Blues Too
TTITLE11=Time After Time
TTITLE12=Moon-faced, Starry-eyed
TTITLE13=After You're Gone
TTITLE14=Just For You Blues
TTITLE15=I Want to be Happy
TTITLE16=As Time Goes By
TTITLE17=Whispering
EXTD=YEAR: 2001
EXTT0=
EXTT1=
EXTT2=
EXTT3=
EXTT4=
EXTT5=
EXTT6=
EXTT7=
EXTT8=
EXTT9=
EXTT10=
EXTT11=
EXTT12=
EXTT13=
EXTT14=
EXTT15=
EXTT16=
EXTT17=
PLAYORDER=
